<?xml version="1.0" encoding="UTF-8"?>
<svg xmlns="http://www.w3.org/2000/svg" xmlns:xlink="http://www.w3.org/1999/xlink" width="24px" height="24px" viewBox="0 0 24 24" version="1.1">
    <!-- Generator: Sketch 51.3 (57544) - http://www.bohemiancoding.com/sketch -->
    <title>017 - Scatter Chart</title>
    <desc>Created with Sketch.</desc>
    <defs/>
    <g id="Page-1" stroke="none" stroke-width="1" fill="none" fill-rule="evenodd">
        <g id="017---Scatter-Chart">
            <g id="Outline" fill-rule="nonzero">
                <path d="M12,21 C11.4477153,21 11,20.5522847 11,20 L11,15 C11,14.4477153 11.4477153,14 12,14 C12.5522847,14 13,14.4477153 13,15 L13,20 C13,20.5522847 12.5522847,21 12,21 Z" id="Shape" fill="#55BAFF"/>
                <circle id="Oval" fill="#F9A52B" cx="12" cy="21" r="2"/>
                <path d="M1,1 L23,1 L23,14 C23,15.1045695 22.1045695,16 21,16 L3,16 C1.8954305,16 1,15.1045695 1,14 L1,1 Z" id="Shape" fill="#F4F4F4"/>
                <path d="M23,2 L1,2 C0.44771525,2 6.76353751e-17,1.55228475 0,1 C-6.76353751e-17,0.44771525 0.44771525,1.01453063e-16 1,0 L23,0 C23.5522847,3.38176876e-17 24,0.44771525 24,1 C24,1.55228475 23.5522847,2 23,2 Z" id="Shape" fill="#058BC6"/>
                <path d="M8.5,10.5 C8.0956041,10.4999137 7.73106595,10.2562725 7.57632202,9.88265456 C7.42157809,9.50903662 7.50709208,9.07899425 7.793,8.793 L9.793,6.793 C10.0440745,6.53304342 10.4158779,6.4287874 10.7655073,6.52030284 C11.1151368,6.61181828 11.3881817,6.88486324 11.4796972,7.23449268 C11.5712126,7.58412211 11.4669566,7.95592553 11.207,8.207 L9.207,10.207 C9.01971353,10.3948577 8.76526713,10.5003072 8.5,10.5 Z" id="Shape" fill="#55BAFF"/>
                <path d="M15.5,10.5 C15.2347329,10.5003072 14.9802865,10.3948577 14.793,10.207 L12.793,8.207 C12.5330434,7.95592553 12.4287874,7.58412211 12.5203028,7.23449268 C12.6118183,6.88486324 12.8848632,6.61181828 13.2344927,6.52030284 C13.5841221,6.4287874 13.9559255,6.53304342 14.207,6.793 L16.207,8.793 C16.4929079,9.07899425 16.5784219,9.50903662 16.423678,9.88265456 C16.2689341,10.2562725 15.9043959,10.4999137 15.5,10.5 Z" id="Shape" fill="#55BAFF"/>
                <circle id="Oval" fill="#31D3AC" cx="7" cy="11" r="2"/>
                <circle id="Oval" fill="#31D3AC" cx="17" cy="11" r="2"/>
                <circle id="Oval" fill="#31D3AC" cx="12" cy="6" r="2"/>
            </g>
            <g id="Layer_5" transform="translate(0.000000, 1.000000)">
                <circle id="Oval" stroke="#40464C" stroke-width="2" stroke-linecap="round" stroke-linejoin="round" cx="12" cy="20.087" r="1.913"/>
                <path d="M1,0 L23,0 L23,13 C23,14.1045695 22.1045695,15 21,15 L3,15 C1.8954305,15 1,14.1045695 1,13" id="Shape" stroke="#40464C" stroke-width="2" stroke-linecap="round" stroke-linejoin="round"/>
                <path d="M0,13 L0,10 C-6.76353751e-17,9.44771525 0.44771525,9 1,9 C1.55228475,9 2,9.44771525 2,10 L2,13" id="Shape" fill="#40464C" fill-rule="nonzero"/>
                <path d="M2,0 L2,4 C2,4.55228475 1.55228475,5 1,5 C0.44771525,5 6.76353751e-17,4.55228475 0,4 L0,0" id="Shape" fill="#40464C" fill-rule="nonzero"/>
                <path d="M1,0 L23,0" id="Shape" stroke="#40464C" stroke-width="2" stroke-linecap="round" stroke-linejoin="round"/>
                <path d="M12,18.1739 L12,15.3043" id="Shape" stroke="#40464C" stroke-width="2" stroke-linecap="round" stroke-linejoin="round"/>
                <circle id="Oval" stroke="#40464C" stroke-width="2" stroke-linecap="round" stroke-linejoin="round" cx="7" cy="10" r="2"/>
                <circle id="Oval" stroke="#40464C" stroke-width="2" stroke-linecap="round" stroke-linejoin="round" cx="17" cy="10" r="2"/>
                <circle id="Oval" stroke="#40464C" stroke-width="2" stroke-linecap="round" stroke-linejoin="round" cx="12" cy="5" r="2"/>
                <path d="M10.5,6.5 L8.5,8.5" id="Shape" stroke="#40464C" stroke-width="2" stroke-linecap="round" stroke-linejoin="round"/>
                <path d="M15.5,8.5 L13.5,6.5" id="Shape" stroke="#40464C" stroke-width="2" stroke-linecap="round" stroke-linejoin="round"/>
            </g>
        </g>
    </g>
</svg>
