<?xml version="1.0" encoding="UTF-8" standalone="no"?>
<svg width="58px" height="32px" viewBox="0 0 58 32" version="1.1" xmlns="http://www.w3.org/2000/svg" xmlns:xlink="http://www.w3.org/1999/xlink">
    <!-- Generator: Sketch 40.1 (33804) - http://www.bohemiancoding.com/sketch -->
    <title>45 -Car- (transport, vehicle, flat)</title>
    <desc>Created with Sketch.</desc>
    <defs></defs>
    <g id="Page-1" stroke="none" stroke-width="1" fill="none" fill-rule="evenodd">
        <g id="Transport---Flat" transform="translate(-601.000000, -897.000000)">
            <g id="45--Car--(transport,-vehicle,-flat)" transform="translate(600.000000, 897.000000)">
                <path d="M18,26 C18,29.314 15.314,32 12,32 C8.686,32 6,29.314 6,26 C6,22.686 8.686,20 12,20 C15.314,20 18,22.686 18,26" id="Fill-552" fill="#5B5B5B"></path>
                <path d="M14,26 C14,27.105 13.105,28 12,28 C10.895,28 10,27.105 10,26 C10,24.895 10.895,24 12,24 C13.105,24 14,24.895 14,26" id="Fill-553" fill="#B2B2B2"></path>
                <path d="M54,26 C54,29.314 51.314,32 48,32 C44.686,32 42,29.314 42,26 C42,22.686 44.686,20 48,20 C51.314,20 54,22.686 54,26" id="Fill-554" fill="#5B5B5B"></path>
                <path d="M50,26 C50,27.105 49.105,28 48,28 C46.895,28 46,27.105 46,26 C46,24.895 46.895,24 48,24 C49.105,24 50,24.895 50,26" id="Fill-555" fill="#B2B2B2"></path>
                <path d="M45.1899,8.4337 L41.7369,2.8227 C40.6579,1.0687 38.7449,-0.0003 36.6859,-0.0003 L16.3169,-0.0003 C14.2559,-0.0003 12.3429,1.0707 11.2639,2.8267 L6.2909,10.9237 C5.4979,12.2137 4.0909,12.9997 2.5769,12.9997 L2.5289,12.9997 C1.6749,12.9997 0.9939,13.6797 0.9959,14.5227 C0.9979,16.7317 0.9989,20.8507 0.9999,23.5067 C0.9999,24.8877 2.1189,25.9997 3.4989,25.9997 L5.9999,25.9997 C5.9999,22.6867 8.6859,19.9997 11.9999,19.9997 C15.3139,19.9997 17.9999,22.6867 17.9999,25.9997 L41.9999,25.9997 C41.9999,22.6867 44.6859,19.9997 47.9999,19.9997 C51.3139,19.9997 53.9999,22.6867 53.9999,25.9997 L55.9579,25.9997 C57.6379,25.9997 58.9999,24.6377 58.9999,22.9577 L58.9999,14.5187 C58.9999,13.6797 58.3199,12.9997 57.4809,12.9997 L53.3619,12.9997 C50.0299,12.9997 46.9359,11.2717 45.1899,8.4337" id="Fill-683" fill="#86C250"></path>
                <path d="M45.1899,8.4336 L42.4619,3.9996 L15.8279,3.9996 C15.3709,3.9996 14.9999,4.3706 14.9999,4.8286 L14.9999,9.1716 C14.9999,9.6296 15.3709,9.9996 15.8279,9.9996 L46.4179,9.9996 C45.9639,9.5226 45.5429,9.0076 45.1899,8.4336" id="Fill-684" fill="#E6E6E6"></path>
                <polygon id="Fill-685" fill="#5B5B5B" points="29 10 31 10 31 4 29 4"></polygon>
                <path d="M35,16 L30,16 C29.448,16 29,15.553 29,15 C29,14.447 29.448,14 30,14 L35,14 C35.552,14 36,14.447 36,15 C36,15.553 35.552,16 35,16" id="Fill-686" fill="#628D3A"></path>
                <path d="M35,18 C34.448,18 34,17.553 34,17 L34,15 C34,14.447 34.448,14 35,14 C35.552,14 36,14.447 36,15 L36,17 C36,17.553 35.552,18 35,18" id="Fill-687" fill="#628D3A"></path>
                <path d="M59,17 L55,17 C54.447,17 54,17.447 54,18 C54,18.553 54.447,19 55,19 L59,19 L59,17 Z" id="Fill-1929" fill="#628D3A"></path>
                <path d="M5,17 L0.998,17 C0.998,17.642 0.998,18.312 0.999,19 L5,19 C5.552,19 6,18.553 6,18 C6,17.447 5.552,17 5,17" id="Fill-1930" fill="#628D3A"></path>
            </g>
        </g>
    </g>
</svg>