<?xml version="1.0" encoding="UTF-8"?>
<svg xmlns="http://www.w3.org/2000/svg" xmlns:xlink="http://www.w3.org/1999/xlink" width="24px" height="24px" viewBox="0 0 24 24" version="1.1">
    <!-- Generator: Sketch 51.3 (57544) - http://www.bohemiancoding.com/sketch -->
    <title>77 - Map Location </title>
    <desc>Created with Sketch.</desc>
    <defs/>
    <g id="Page-1" stroke="none" stroke-width="1" fill="none" fill-rule="evenodd">
        <g id="77---Map-Location-" transform="translate(0.000000, 1.000000)">
            <path d="M16,4 C16,5.5571 14.0127,9.7066 12.84,11.5405 C12.6567845,11.8268022 12.3403071,12.0000086 12.0004,12.0000086 C11.6604929,12.0000086 11.3440155,11.8268022 11.1608,11.5405 C9.9873,9.7066 8,5.5571 8,4 C8,1.790861 9.790861,4.4408921e-16 12,0 C14.209139,-4.4408921e-16 16,1.790861 16,4 Z" id="Shape" fill="#31D3AC" fill-rule="nonzero"/>
            <path d="M17,12 L19.256,12 C19.6976117,12.000018 20.086925,12.2897064 20.2138,12.7127 L22.6138,20.7127 C22.7046126,21.0154638 22.6469344,21.3433384 22.4582495,21.5969343 C22.2695646,21.8505301 21.9720899,21.9999872 21.656,22 L2.344,22 C2.02791006,21.9999872 1.73043543,21.8505301 1.54175051,21.5969343 C1.35306559,21.3433384 1.29538736,21.0154638 1.3862,20.7127 L3.7862,12.7127 C3.91307503,12.2897064 4.30238832,12.000018 4.744,12 L17,12 Z" id="Shape" fill="#F4F4F4" fill-rule="nonzero"/>
            <circle id="Oval" fill="#31D3AC" fill-rule="nonzero" cx="11.9883" cy="4" r="1"/>
            <path d="M3.9883,12 L6.9882,12" id="Shape" stroke="#40464C" stroke-width="2" stroke-linecap="round" stroke-linejoin="round"/>
            <polyline id="Shape" stroke="#40464C" stroke-width="2" stroke-linecap="round" stroke-linejoin="round" points="16.988 12 19.988 12 22.988 22 0.988 22"/>
            <polygon id="Shape" fill="#40464C" fill-rule="nonzero" points="0.9883 22 0.8931 21.9692 1.0847 22.0266"/>
            <path d="M2.8389,15.8313 C2.31101367,15.6712302 2.01146167,15.1149258 2.1684,14.5861 L3.0305,11.7127 L4.9461,12.2873 L4.084,15.1608 C3.92397507,15.6886729 3.36770037,15.9882329 2.8389,15.8313 Z" id="Shape" fill="#40464C" fill-rule="nonzero"/>
            <path d="M1.9467,22.2852 L0.0311,21.7105 L0.157,21.2905 C0.257730221,20.9459884 0.535373299,20.6818883 0.884487746,20.598498 C1.23360219,20.5151077 1.60063053,20.62522 1.84618512,20.8870172 C2.0917397,21.1488145 2.17815013,21.5221344 2.0726,21.8652 L1.9467,22.2852 Z" id="Shape" fill="#40464C" fill-rule="nonzero"/>
            <path d="M15.9883,4 C15.9883,6.2091 11.9883,12 11.9883,12 C11.9883,12 7.9883,6.2091 7.9883,4 C7.9883,1.790861 9.779161,4.4408921e-16 11.9883,0 C14.197439,-4.4408921e-16 15.9883,1.790861 15.9883,4 Z" id="Shape" stroke="#40464C" stroke-width="2" stroke-linecap="round" stroke-linejoin="round"/>
            <path d="M6.9883,18 C6.9883,18 8.9883,19 9.9883,18" id="Shape" stroke="#40464C" stroke-width="2" stroke-linecap="round" stroke-linejoin="round"/>
            <path d="M12.9883,16 C13.8288796,15.3047111 14.8986629,14.9481166 15.9883,15" id="Shape" stroke="#40464C" stroke-width="2" stroke-linecap="round" stroke-linejoin="round"/>
            <circle id="Oval" fill="#F4F4F4" fill-rule="nonzero" cx="11.9883" cy="4" r="1"/>
            <path d="M15.9883,4 C15.9883,6.2091 11.9883,12 11.9883,12 C11.9883,12 7.9883,6.2091 7.9883,4 C7.9883,1.790861 9.779161,4.4408921e-16 11.9883,0 C14.197439,-4.4408921e-16 15.9883,1.790861 15.9883,4 Z" id="Shape" stroke="#40464C" stroke-width="2" stroke-linecap="round" stroke-linejoin="round"/>
            <path d="M8.7705,19.4473 C7.99658999,19.4228651 7.23667946,19.2344468 6.541,18.8945 C6.22115798,18.735231 6.01058077,18.4174267 5.98859076,18.0608009 C5.96660075,17.7041751 6.13653875,17.3629077 6.43439076,17.1655509 C6.73224277,16.9681941 7.11275798,16.944731 7.4326,17.104 C7.8945,17.3315 8.9463,17.6289 9.2813,17.293 C9.67367889,16.9140278 10.2973848,16.9194476 10.6831186,17.3051814 C11.0688524,17.6909152 11.0742722,18.3146211 10.6953,18.707 C10.1812376,19.2055142 9.48612781,19.4728614 8.7705,19.4473 Z" id="Shape" fill="#31D3AC" fill-rule="nonzero"/>
            <path d="M12.9922,16.9907 C12.589609,16.9916598 12.225972,16.7503241 12.0704721,16.3789749 C11.9149723,16.0076257 11.9981474,15.5791905 12.2813,15.293 C13.3063497,14.4041495 14.6328083,13.9414813 15.9883,14 C16.5405847,14 16.9883,14.4477153 16.9883,15 C16.9883,15.5522847 16.5405847,16 15.9883,16 C15.1587831,15.9552856 14.3408275,16.2102157 13.6836,16.7183 C13.4960766,16.8935886 13.2488925,16.990975 12.9922,16.9907 Z" id="Shape" fill="#31D3AC" fill-rule="nonzero"/>
            <path d="M15.99,19 C15.9229374,18.998179 15.8560952,18.9914948 15.79,18.98 C15.7272029,18.9688875 15.6663625,18.9486748 15.6094,18.92 C15.5457394,18.8979603 15.4852282,18.8677046 15.4294,18.83 C15.3796,18.7904 15.3298,18.7504 15.28,18.71 C15.2337177,18.6653669 15.193385,18.614951 15.16,18.56 C15.1227529,18.5021523 15.0891542,18.4420354 15.0594,18.38 C15.038167,18.321363 15.0214515,18.2611874 15.0094,18.2 C14.9930311,18.1346627 14.9862933,18.0672849 14.9894,18 C14.988325,17.7342865 15.0926059,17.4789782 15.2794,17.29 C15.3266627,17.2469398 15.3765591,17.2068623 15.4288,17.17 C15.4846282,17.1322954 15.5451394,17.1020397 15.6088,17.08 C15.6656618,17.0510836 15.7265389,17.0308587 15.7894,17.02 C15.9176289,16.9896523 16.0511711,16.9896523 16.1794,17.02 C16.2456071,17.0293925 16.309806,17.0496658 16.3694,17.08 C16.4308453,17.0999425 16.4883648,17.130394 16.5394,17.17 C16.5952371,17.2018844 16.6456913,17.2423828 16.6889,17.29 C16.8787339,17.477859 16.9869119,17.732945 16.99,18 C16.9880384,18.0670764 16.9811869,18.1339204 16.9695,18.2 C16.9585968,18.2625921 16.938549,18.3232408 16.91,18.38 C16.8835705,18.4418775 16.8532085,18.5020004 16.8191,18.56 C16.7790398,18.6127455 16.7356162,18.6628497 16.6891,18.71 C16.5025468,18.8937518 16.251843,18.9977485 15.99,19 Z" id="Shape" fill="#F4608A" fill-rule="nonzero"/>
        </g>
    </g>
</svg>
