<?xml version="1.0" encoding="UTF-8"?>
<svg xmlns="http://www.w3.org/2000/svg" xmlns:xlink="http://www.w3.org/1999/xlink" width="55px" height="60px" viewBox="0 0 55 60" version="1.1">
    <!-- Generator: Sketch 51.3 (57544) - http://www.bohemiancoding.com/sketch -->
    <title>003 - Power Bank</title>
    <desc>Created with Sketch.</desc>
    <defs/>
    <g id="Page-1" stroke="none" stroke-width="1" fill="none" fill-rule="evenodd">
        <g id="003---Power-Bank" transform="translate(0.000000, 1.000000)">
            <path d="M9,8.77 L9,5 C9.00099343,2.23898785 11.2389878,0.00099342802 14,0 L45,0 C47.7610122,0.00099342802 49.9990066,2.23898785 50,5 L50,24.27 L46,24.27 L46,5 C45.9984072,4.44837635 45.5516236,4.00159279 45,4 L14,4 C13.4483764,4.00159279 13.0015928,4.44837635 13,5 L13,8.77 L9,8.77 Z" id="Shape" fill="#48BDFF" fill-rule="nonzero"/>
            <path d="M50,5 L50,24.27 L47,24.27 L47,5 C46.9990066,2.23898785 44.7610122,0.00099342802 42,0 L45,0 C47.7610122,0.00099342802 49.9990066,2.23898785 50,5 Z" id="Shape" fill="#2C98F6" fill-rule="nonzero"/>
            <path d="M11,8 C12.6568542,8 14,9.34314575 14,11 L14,15 L8,15 L8,11 C8,9.34314575 9.34314575,8 11,8 Z" id="Shape" fill="#48BDFF" fill-rule="nonzero"/>
            <path d="M51,30 L51,26 C51,24.8954305 50.1045695,24 49,24 L47,24 C45.8954305,24 45,24.8954305 45,26 L45,30 C43.3431458,30 42,31.3431458 42,33 L42,38 C42,38.5522847 42.4477153,39 43,39 L43,46 C43.0032402,47.1032246 43.8967754,47.9967598 45,48 L51,48 C52.1032246,47.9967598 52.9967598,47.1032246 53,46 L53,39 C53.5522847,39 54,38.5522847 54,38 L54,33 C54,31.3431458 52.6568542,30 51,30 Z" id="Shape" fill="#3F5C6C" fill-rule="nonzero"/>
            <path d="M53,39 L53,46 C52.9967598,47.1032246 52.1032246,47.9967598 51,48 L45,48 C43.8967754,47.9967598 43.0032402,47.1032246 43,46 L43,39 L53,39 Z" id="Shape" fill="#808080" fill-rule="nonzero"/>
            <path d="M50,39 L50,46 C49.9967598,47.1032246 49.1032246,47.9967598 48,48 L45,48 C43.8967754,47.9967598 43.0032402,47.1032246 43,46 L43,39 L50,39 Z" id="Shape" fill="#BFBFBF" fill-rule="nonzero"/>
            <rect id="Rectangle-path" fill="#FF8401" fill-rule="nonzero" x="1" y="14" width="34" height="44" rx="5"/>
            <rect id="Rectangle-path" fill="#FFDC00" fill-rule="nonzero" x="1" y="14" width="31" height="44" rx="5"/>
            <rect id="Rectangle-path" fill="#FFDC00" fill-rule="nonzero" transform="translate(18.000000, 36.000000) rotate(90.000000) translate(-18.000000, -36.000000) " x="0" y="23" width="36" height="26" rx="1"/>
            <path d="M15.5857,46.4571 L16.4525,36.5436 C16.4647245,36.4039444 16.4177581,36.2655717 16.3230492,36.1622114 C16.2283403,36.0588511 16.0945896,35.9999987 15.9544,36 L12.9572,36 C12.7710829,35.9998491 12.6004526,35.8963353 12.5143411,35.7313372 C12.4282295,35.566339 12.4408898,35.3671669 12.5472,35.2144 L19.5,25.224 C19.6264981,25.0342457 19.8653654,24.9541303 20.0806968,25.029236 C20.2960282,25.1043418 20.4332545,25.3156354 20.4143,25.5429 L19.5475,35.4564 C19.5352755,35.5960556 19.5822419,35.7344283 19.6769508,35.8377886 C19.7716597,35.9411489 19.9054104,36.0000013 20.0456,36 L23.0428,36 C23.2289171,36.0001509 23.3995474,36.1036647 23.4856589,36.2686628 C23.5717705,36.433661 23.5591102,36.6328331 23.4528,36.7856 L16.5,46.776 C16.3735019,46.9657543 16.1346346,47.0458697 15.9193032,46.970764 C15.7039718,46.8956582 15.5667455,46.6843646 15.5857,46.4571 Z" id="Shape" fill="#FF8401" fill-rule="nonzero"/>
            <path d="M51,26 L51,30 L45,30 L45,26 C45.0013698,25.0898763 45.6183793,24.2959908 46.5,24.07 C46.6621848,24.0215939 46.8307575,23.9979937 47,24 L49,24 C50.1032246,24.0032402 50.9967598,24.8967754 51,26 Z" id="Shape" fill="#2C98F6" fill-rule="nonzero"/>
            <path d="M48,26 L48,30 L45,30 L45,26 C45.0013698,25.0898763 45.6183793,24.2959908 46.5,24.07 C47.3816207,24.2959908 47.9986302,25.0898763 48,26 Z" id="Shape" fill="#48BDFF" fill-rule="nonzero"/>
            <path d="M54,33 L54,38 C53.9984072,38.5516236 53.5516236,38.9984072 53,39 L43,39 C42.4483764,38.9984072 42.0015928,38.5516236 42,38 L42,33 C41.9989366,32.204025 42.3146656,31.4403452 42.8775054,30.8775054 C43.4403452,30.3146656 44.204025,29.9989366 45,30 L51,30 C51.795975,29.9989366 52.5596548,30.3146656 53.1224946,30.8775054 C53.6853344,31.4403452 54.0010634,32.204025 54,33 Z" id="Shape" fill="#2C98F6" fill-rule="nonzero"/>
            <path d="M51,33 L51,38 C50.9984072,38.5516236 50.5516236,38.9984072 50,39 L43,39 C42.4483764,38.9984072 42.0015928,38.5516236 42,38 L42,33 C41.9989366,32.204025 42.3146656,31.4403452 42.8775054,30.8775054 C43.4403452,30.3146656 44.204025,29.9989366 45,30 L48,30 C48.795975,29.9989366 49.5596548,30.3146656 50.1224946,30.8775054 C50.6853344,31.4403452 51.0010634,32.204025 51,33 Z" id="Shape" fill="#48BDFF" fill-rule="nonzero"/>
            <path d="M6,58 L9,58 C6.23898785,57.9990066 4.00099343,55.7610122 4,53 L4,19 C4.00099343,16.2389878 6.23898785,14.0009934 9,14 L11,14 L11,11 C11.0017078,10.146312 11.3694573,9.33435024 12.01,8.77 L12,8.77 L12,5 C12.0009934,2.23898785 14.2389878,0.00099342802 17,0 L14,0 C11.2389878,0.00099342802 9.00099343,2.23898785 9,5 L9,8.77 L9.01,8.77 C8.36945726,9.33435024 8.00170779,10.146312 8,11 L8,14 L6,14 C3.23898785,14.0009934 1.00099343,16.2389878 1,19 L1,53 C1.00099343,55.7610122 3.23898785,57.9990066 6,58 Z" id="Shape" fill="#FFFFFF" fill-rule="nonzero"/>
            <polygon id="Shape" fill="#FFFFFF" fill-rule="nonzero" points="2 19 2 32 2 53 0 53 0 32 0 19"/>
            <path d="M1,24 C1.55162365,23.9984072 1.99840721,23.5516236 2,23 L2,19 L0,19 L0,23 C0.00159278994,23.5516236 0.448376352,23.9984072 1,24 Z" id="Shape" fill="#000000" fill-rule="nonzero"/>
            <path d="M0,53 L2,53 L2,31 C2,30.4477153 1.55228475,30 1,30 C0.44771525,30 6.76353751e-17,30.4477153 0,31 L0,53 Z" id="Shape" fill="#000000" fill-rule="nonzero"/>
            <path d="M2,27 C1.9960411,26.7352892 1.89249776,26.4817865 1.71,26.29 L1.56,26.17 C1.50424402,26.132172 1.44371601,26.101908 1.38,26.08 C1.32333992,26.0511067 1.26266403,26.0308814 1.2,26.02 C1.13387126,26.0087518 1.06704662,26.0020694 1,26 C0.735233018,26.0036835 0.481633787,26.1072663 0.29,26.29 C-0.0874522704,26.688085 -0.0874522704,27.311915 0.29,27.71 C0.385660077,27.8003288 0.497657849,27.8716001 0.62,27.92 C0.740222313,27.971241 0.869322743,27.99842 1,28 C1.26469083,27.9959431 1.51815919,27.8924138 1.71,27.71 C1.89241381,27.5181592 1.99594314,27.2646908 2,27 Z" id="Shape" fill="#000000" fill-rule="nonzero"/>
            <path d="M1,19 C1,16.2385763 3.23857625,14 6,14 L30,14 C32.7614237,14 35,16.2385763 35,19 L35,53 C35,55.7614237 32.7614237,58 30,58 L6,58 C4.67391755,58 3.40214799,57.4732158 2.46446609,56.5355339 C1.5267842,55.597852 1,54.3260824 1,53" id="Shape" stroke="#000000" stroke-width="2" stroke-linecap="round" stroke-linejoin="round"/>
            <rect id="Rectangle-path" stroke="#000000" stroke-width="2" stroke-linecap="round" stroke-linejoin="round" transform="translate(18.000000, 36.000000) rotate(90.000000) translate(-18.000000, -36.000000) " x="0" y="23" width="36" height="26" rx="1"/>
            <path d="M15.5857,46.4571 L16.5,36 L12,36 L19.5,25.224 C19.6264981,25.0342457 19.8653654,24.9541303 20.0806968,25.029236 C20.2960282,25.1043418 20.4332545,25.3156354 20.4143,25.5429 L19.5,36 L24,36 L16.5,46.776 C16.3735019,46.9657543 16.1346346,47.0458697 15.9193032,46.970764 C15.7039718,46.8956582 15.5667455,46.6843646 15.5857,46.4571 Z" id="Shape" stroke="#000000" stroke-width="2" stroke-linecap="round" stroke-linejoin="round"/>
            <circle id="Oval" fill="#000000" fill-rule="nonzero" cx="27" cy="50" r="1"/>
            <circle id="Oval" fill="#000000" fill-rule="nonzero" cx="27" cy="46" r="1"/>
            <circle id="Oval" fill="#000000" fill-rule="nonzero" cx="27" cy="42" r="1"/>
            <path d="M11,8 C12.6568542,8 14,9.34314575 14,11 L14,14 L8,14 L8,11 C8,9.34314575 9.34314575,8 11,8 Z" id="Shape" stroke="#000000" stroke-width="2" stroke-linecap="round" stroke-linejoin="round"/>
            <path d="M46,24.27 L46,5 C45.9984072,4.44837635 45.5516236,4.00159279 45,4 L14,4 C13.4483764,4.00159279 13.0015928,4.44837635 13,5 L13,8.77" id="Shape" stroke="#000000" stroke-width="2" stroke-linecap="round" stroke-linejoin="round"/>
            <path d="M50,24.27 L50,5 C49.9990066,2.23898785 47.7610122,0.00099342802 45,0 L14,0 C11.2389878,0.00099342802 9.00099343,2.23898785 9,5 L9,8.77" id="Shape" stroke="#000000" stroke-width="2" stroke-linecap="round" stroke-linejoin="round"/>
            <path d="M47,24 L49,24 C50.1045695,24 51,24.8954305 51,26 L51,30 L45,30 L45,26 C45,24.8954305 45.8954305,24 47,24 Z" id="Shape" stroke="#000000" stroke-width="2" stroke-linecap="round" stroke-linejoin="round"/>
            <path d="M45,30 L51,30 C52.6568542,30 54,31.3431458 54,33 L54,38 C54,38.5522847 53.5522847,39 53,39 L43,39 C42.4477153,39 42,38.5522847 42,38 L42,33 C42,31.3431458 43.3431458,30 45,30 Z" id="Shape" stroke="#000000" stroke-width="2" stroke-linecap="round" stroke-linejoin="round"/>
            <path d="M53,39 L53,46 C52.9967598,47.1032246 52.1032246,47.9967598 51,48 L45,48 C43.8967754,47.9967598 43.0032402,47.1032246 43,46 L43,39" id="Shape" stroke="#000000" stroke-width="2" stroke-linecap="round" stroke-linejoin="round"/>
            <path d="M48,43 L48,44" id="Shape" stroke="#000000" stroke-width="2" stroke-linecap="round" stroke-linejoin="round"/>
            <path d="M9,23 C8.73528916,22.9960411 8.48178651,22.8924978 8.29,22.71 C8.20177224,22.6127203 8.13075691,22.5011248 8.08,22.38 C7.97396018,22.1377632 7.97396018,21.8622368 8.08,21.62 C8.13071523,21.4988534 8.20173486,21.3872512 8.29,21.29 C8.58019672,21.0113047 9.00703151,20.9290704 9.38,21.08 C9.50112478,21.1307569 9.61272031,21.2017722 9.71,21.29 C9.80032883,21.3856601 9.87160014,21.4976578 9.92,21.62 C10.0267162,21.8620948 10.0267162,22.1379052 9.92,22.38 C9.87142877,22.5022547 9.80017699,22.6142217 9.71,22.71 C9.61261214,22.7980859 9.50104205,22.869085 9.38,22.92 C9.25977769,22.971241 9.13067726,22.99842 9,23 Z" id="Shape" fill="#FFFFFF" fill-rule="nonzero"/>
            <path d="M17,23 L13,23 C12.4477153,23 12,22.5522847 12,22 C12,21.4477153 12.4477153,21 13,21 L17,21 C17.5522847,21 18,21.4477153 18,22 C18,22.5522847 17.5522847,23 17,23 Z" id="Shape" fill="#FFFFFF" fill-rule="nonzero"/>
        </g>
    </g>
</svg>
