<?xml version="1.0" encoding="UTF-8"?>
<svg xmlns="http://www.w3.org/2000/svg" xmlns:xlink="http://www.w3.org/1999/xlink" width="58px" height="58px" viewBox="0 0 58 58" version="1.1">
    <!-- Generator: Sketch 48.2 (47327) - http://www.bohemiancoding.com/sketch -->
    <title>018 - Solar Power</title>
    <desc>Created with Sketch.</desc>
    <defs/>
    <g id="Page-1" stroke="none" stroke-width="1" fill="none" fill-rule="evenodd">
        <g id="018---Solar-Power" fill-rule="nonzero">
            <path d="M44,5.56348 C43.7347624,5.56354899 43.4803684,5.4582143 43.292817,5.27066297 C43.1052657,5.08311163 42.999931,4.82871763 43,4.56348 L43,1 C43,0.44771525 43.4477153,0 44,0 C44.5522847,-1.11022302e-16 45,0.44771525 45,1 L45,4.56348 C45.000069,4.82871763 44.8947343,5.08311163 44.707183,5.27066297 C44.5196316,5.4582143 44.2652376,5.56354899 44,5.56348 Z" id="Shape" fill="#F29C1F"/>
            <path d="M38.76465,7.26465 C38.4442823,7.26521338 38.1431284,7.11191158 37.95508,6.85254 L35.86035,3.96973 C35.5356673,3.52315531 35.6344803,2.89792768 36.081055,2.573245 C36.5276297,2.24856232 37.1528573,2.34737531 37.47754,2.79395 L39.57227,5.67676 C39.7934748,5.98072475 39.8254461,6.38309159 39.6550188,6.71817466 C39.4845915,7.05325774 39.1405836,7.26439703 38.76465,7.26465 Z" id="Shape" fill="#F29C1F"/>
            <path d="M35.52734,11.71973 C35.4225262,11.7195821 35.3183887,11.7029384 35.21875,11.67041 L31.83008,10.56934 C31.4880027,10.4608814 31.2302685,10.1774419 31.1547217,9.82662457 C31.0791749,9.47580721 31.1974,9.11140679 31.4645149,8.87176163 C31.7316297,8.63211648 32.1066745,8.55397414 32.44727,8.667 L35.83594,9.76807 C36.3039448,9.91997282 36.59197,10.3896853 36.515125,10.8756871 C36.43828,11.3616889 36.0193896,11.7196262 35.52735,11.71973 L35.52734,11.71973 Z" id="Shape" fill="#F29C1F"/>
            <path d="M55.86133,18.32666 C55.7565162,18.3265121 55.6523787,18.3098684 55.55274,18.27734 L52.16407,17.17627 C51.8219927,17.0678114 51.5642585,16.7843719 51.4887117,16.4335546 C51.4131649,16.0827372 51.53139,15.7183368 51.7985049,15.4786916 C52.0656197,15.2390465 52.4406645,15.1609041 52.78126,15.27393 L56.16992,16.375 C56.6379248,16.5269028 56.92595,16.9966153 56.849105,17.4826171 C56.77226,17.9686189 56.3533696,18.3265562 55.86133,18.32666 Z" id="Shape" fill="#F29C1F"/>
            <path d="M52.47266,11.71973 C51.9806204,11.7196262 51.56173,11.3616889 51.484885,10.8756871 C51.40804,10.3896853 51.6960652,9.91997282 52.16407,9.76807 L55.55273,8.667 C55.8933255,8.55397414 56.2683703,8.63211648 56.5354851,8.87176163 C56.8026,9.11140679 56.9208251,9.47580721 56.8452783,9.82662457 C56.7697315,10.1774419 56.5119973,10.4608814 56.16992,10.56934 L52.78125,11.67041 C52.6816113,11.7029384 52.5774738,11.7195821 52.47266,11.71973 Z" id="Shape" fill="#F29C1F"/>
            <path d="M49.23535,7.26465 C48.8594164,7.26439703 48.5154085,7.05325774 48.3449812,6.71817466 C48.1745539,6.38309159 48.2065252,5.98072475 48.42773,5.67676 L50.52246,2.79395 C50.7324929,2.50506683 51.0806886,2.35017897 51.4358852,2.38763119 C51.7910818,2.4250834 52.0993164,2.6491858 52.2444802,2.97552119 C52.3896439,3.30185657 52.3496829,3.68084683 52.13965,3.96973 L50.04492,6.85254 C49.8568716,7.11191158 49.5557177,7.26521338 49.23535,7.26465 Z" id="Shape" fill="#F29C1F"/>
            <circle id="Oval" fill="#F0C419" cx="44" cy="14" r="10"/>
            <path d="M58,32.36 L58,56 C57.9967543,57.1032223 57.1032223,57.9967543 56,58 L30,58 L30,32 L44,15 L57.77,31.72 C57.9186981,31.9001304 58.0000221,32.1264233 58,32.36 Z" id="Shape" fill="#CBB292"/>
            <path d="M30,32 L30,58 L2,58 C0.896777692,57.9967543 0.00324565669,57.1032223 -4.28171767e-16,56 L-4.28171767e-16,32.36 C-0.000995926512,32.2365245 0.0228077398,32.1141056 0.07,32 L30,32 Z" id="Shape" fill="#FDD7AD"/>
            <path d="M44,15 L30,32 L0.07,32 C0.10335382,31.8965875 0.157839663,31.8012373 0.23,31.72 L13.4,15.73 C13.7796143,15.2702509 14.3437884,15.0028177 14.94,15 L44,15 Z" id="Shape" fill="#F09372"/>
            <path d="M42,42 L46,42 C47.1045695,42 48,42.8954305 48,44 L48,58 L40,58 L40,44 C40,42.8954305 40.8954305,42 42,42 Z" id="Shape" fill="#7F6E5D"/>
            <polygon id="Shape" fill="#2FA8CC" points="36 19 33.4 21.92 31.63 23.92 28 28 8 28 11.63 23.92 13.4 21.92 16 19"/>
            <polygon id="Shape" fill="#E6E7E8" points="33.04 19 30.45 21.92 28.67 23.92 25.05 28 22.38 28 26 23.92 27.78 21.92 30.37 19"/>
            <polygon id="Shape" fill="#E6E7E8" points="27.26 19 24.67 21.92 22.89 23.92 19.27 28 16.6 28 20.22 23.92 22 21.92 24.59 19"/>
            <polygon id="Shape" fill="#E6E7E8" points="21.48 19 18.89 21.92 17.11 23.92 13.49 28 10.82 28 14.44 23.92 16.22 21.92 18.81 19"/>
            <polygon id="Shape" fill="#E6E7E8" points="33.4 21.92 31.63 23.92 11.63 23.92 13.4 21.92"/>
        </g>
    </g>
</svg>
