<?xml version="1.0" encoding="UTF-8"?>
<svg width="59px" height="59px" viewBox="0 0 59 59" version="1.1" xmlns="http://www.w3.org/2000/svg" xmlns:xlink="http://www.w3.org/1999/xlink">
    <!-- Generator: Sketch 51.3 (57544) - http://www.bohemiancoding.com/sketch -->
    <title>046 - Pound Sterling</title>
    <desc>Created with Sketch.</desc>
    <defs></defs>
    <g id="Page-1" stroke="none" stroke-width="1" fill="none" fill-rule="evenodd">
        <g id="046---Pound-Sterling">
            <path d="M31.73,10.93 C31.9040258,10.6508239 31.9974688,10.3289649 32,10 L32,5 C32,2.24 25.06,0 16.5,0 C7.94,0 1,2.24 1,5 L1,10 C1,11.11 2.12,12.13 4,12.95 C4.09,12.99 4.18,13.03 4.28,13.07 C4.09868951,13.3463972 4.0014279,13.6694446 4,14 L4,19 C4.00253537,19.2047754 4.03972778,19.407643 4.11,19.6 C1.56,20.5 0,21.69 0,23 L0,28 C0,29.11 1.12,30.13 3,30.95 C4.28837451,31.4964319 5.62845587,31.9118572 7,32.19 C8.65001725,32.5256796 10.320265,32.7528333 12,32.87 C13.12,32.96 14.3,33 15.5,33 C16.35,33 17.19,32.98 18,32.93 C19.07,32.88 20.11,32.79 21.09,32.66 C21.5699173,31.29208 22.2111028,29.9862101 23,28.77 C23.3488655,28.2039089 23.7364566,27.662618 24.16,27.15 C25.4520932,25.527137 27.0028857,24.128383 28.75,23.01 C29.774306,22.3452652 30.8631723,21.7857555 32,21.34 C32.7005454,21.0570521 33.4187227,20.8198866 34.15,20.63 C34.6506025,20.2309145 34.9593122,19.6389183 35,19 L35,14 C35,12.84 33.78,11.78 31.73,10.93 Z M11,18.21 L11,18.19 C11.02,18.19 11.04,18.2 11.06,18.2 C11.0411053,18.2081444 11.0205148,18.2115762 11,18.21 Z" id="Shape" fill="#B19046" fill-rule="nonzero"></path>
            <path d="M7,27.19 L7,32.19 C5.62845587,31.9118572 4.28837451,31.4964319 3,30.95 L3,25.95 C4.28837451,26.4964319 5.62845587,26.9118572 7,27.19 Z" id="Shape" fill="#E4C05C" fill-rule="nonzero"></path>
            <path d="M18,27.93 L18,32.93 C17.19,32.98 16.35,33 15.5,33 C14.3,33 13.12,32.96 12,32.87 L12,27.87 C13.12,27.96 14.3,28 15.5,28 C16.35,28 17.19,27.98 18,27.93 Z" id="Shape" fill="#E4C05C" fill-rule="nonzero"></path>
            <path d="M35,14 C35,14.91 34.24,15.77 32.91,16.5 C32.6158253,16.6678501 32.311959,16.8181137 32,16.95 C30.3942877,17.6185518 28.7163893,18.0984307 27,18.38 C26.76,18.42 26.51,18.46 26.25,18.5 C26,18.54 25.74,18.58 25.48,18.61 C24.96,18.68 24.42,18.74 23.87,18.79 L23.86,18.79 C23.26,18.85 22.63,18.9 22,18.93 C21.19,18.98 20.35,19 19.5,19 C18.3,19 17.12,18.96 16,18.87 C15.55,18.84 15.1,18.8 14.67,18.75 C13.85,18.67 13.06,18.56 12.31,18.43 C11.89,18.36 11.48,18.28 11.08,18.2 L11.06,18.2 C11.04,18.2 11.02,18.19 11,18.19 C9.62845587,17.9118572 8.28837451,17.4964319 7,16.95 C6.68804101,16.8181137 6.38417468,16.6678501 6.09,16.5 C4.76,15.77 4,14.91 4,14 C4.0014279,13.6694446 4.09868951,13.3463972 4.28,13.07 C5.48358024,13.5550569 6.72868282,13.9299265 8,14.19 C9.65001725,14.5256796 11.320265,14.7528333 13,14.87 C14.12,14.96 15.3,15 16.5,15 C17.35,15 18.19,14.98 19,14.93 C20.6764198,14.8500249 22.3462804,14.6663402 24,14.38 C25.7163893,14.0984307 27.3942877,13.6185518 29,12.95 C30.0924458,12.5665525 31.0438657,11.8625714 31.73,10.93 C33.78,11.78 35,12.84 35,14 Z" id="Shape" fill="#F3D55B" fill-rule="nonzero"></path>
            <path d="M11,18.19 L11,23.19 C9.62845587,22.9118572 8.28837451,22.4964319 7,21.95 L7,16.95 C8.28837451,17.4964319 9.62845587,17.9118572 11,18.19 Z" id="Shape" fill="#E4C05C" fill-rule="nonzero"></path>
            <path d="M32,5 C32,5.91 31.24,6.77 29.91,7.5 C29.6158253,7.66785012 29.311959,7.81811369 29,7.95 C27.3942877,8.61855177 25.7163893,9.09843069 24,9.38 C22.3462804,9.66634023 20.6764198,9.8500249 19,9.93 C18.19,9.98 17.35,10 16.5,10 C15.3,10 14.12,9.96 13,9.87 C12.47,9.83 11.95,9.78 11.44,9.72 L11.43,9.72 C10.21,9.59 9.06,9.41 8,9.19 C6.62845587,8.91185716 5.28837451,8.49643194 4,7.95 C3.68804101,7.81811369 3.38417468,7.66785012 3.09,7.5 C1.76,6.77 1,5.91 1,5 C1,2.24 7.94,0 16.5,0 C25.06,0 32,2.24 32,5 Z" id="Shape" fill="#F9EAB0" fill-rule="nonzero"></path>
            <path d="M8,9.19 L8,14.19 C6.72868282,13.9299265 5.48358024,13.5550569 4.28,13.07 C4.18,13.03 4.09,12.99 4,12.95 L4,7.95 C5.28837451,8.49643194 6.62845587,8.91185716 8,9.19 Z" id="Shape" fill="#E4C05C" fill-rule="nonzero"></path>
            <path d="M19,9.93 L19,14.93 C18.19,14.98 17.35,15 16.5,15 C15.3,15 14.12,14.96 13,14.87 L13,9.87 C14.12,9.96 15.3,10 16.5,10 C17.35,10 18.19,9.98 19,9.93 Z" id="Shape" fill="#E4C05C" fill-rule="nonzero"></path>
            <path d="M29,7.95 L29,12.95 C27.3942877,13.6185518 25.7163893,14.0984307 24,14.38 L24,9.38 C25.7163893,9.09843069 27.3942877,8.61855177 29,7.95 Z" id="Shape" fill="#E4C05C" fill-rule="nonzero"></path>
            <path d="M50.42,47.95 C48.6169943,49.8147731 46.1530862,50.8958756 43.56,50.96 L43.41,50.96 C42.2106444,50.9216846 41.023943,50.7025494 39.89,50.31 C39.3809368,50.1487703 38.8635118,50.0152413 38.34,49.91 C36.6961217,49.6282728 35.0171596,49.6181382 33.37,49.88 C32.9855034,49.945614 32.6049238,50.0324129 32.23,50.14 C31.5474479,50.3407452 30.8478074,50.4779953 30.14,50.55 L30.03,50.55 C28.9254305,50.5969442 27.9919443,49.7395695 27.9450001,48.635 C27.8980559,47.5304305 28.7554305,46.5969442 29.86,46.55 C30.4080309,46.3857118 30.8840221,46.0401775 31.21,45.57 C32.4023553,44.1499457 33.1285855,42.397217 33.29,40.55 L31,40.55 C29.8954305,40.55 29,39.6545695 29,38.55 C29,37.4454305 29.8954305,36.55 31,36.55 L33.05,36.55 C33.01,36.35 32.96,36.14 32.92,35.93 C32.3009285,33.8867745 32.2387872,31.7152845 32.74,29.64 C33.7383261,26.6225047 36.385679,24.450118 39.54,24.06 C41.6984623,23.7910846 43.8745263,24.3999502 45.58,25.75 C47.0033946,26.8942245 47.8872142,28.5785528 48.02,30.4 C48.0297247,31.4533188 47.2207965,32.3336318 46.1704126,32.4128065 C45.1200286,32.4919812 44.1882799,31.742875 44.04,30.7 C43.9872865,29.9684923 43.6231272,29.2947975 43.04,28.85 C42.1861133,28.1863068 41.1025303,27.8911114 40.03,28.03 C38.4393685,28.2303228 37.0971889,29.3094816 36.56,30.82 C36.2898287,32.2400799 36.3827007,33.7053936 36.83,35.08 C36.93,35.56 37.04,36.05 37.12,36.55 L40,36.55 C41.1045695,36.55 42,37.4454305 42,38.55 C42,39.6545695 41.1045695,40.55 40,40.55 L37.31,40.55 C37.1886313,42.3391912 36.712739,44.086396 35.91,45.69 C36.9733536,45.6885952 38.0345522,45.7856764 39.08,45.98 C39.7380661,46.1134574 40.3889089,46.2803402 41.03,46.48 C41.8150546,46.7724352 42.6426335,46.9345731 43.48,46.96 C45.0319261,46.9211546 46.5056174,46.2705738 47.58,45.15 C48.3531987,44.3657557 49.6157556,44.3568014 50.3999999,45.1300001 C51.1842442,45.9031987 51.1931986,47.1657556 50.42,47.95 Z" id="Shape" stroke="#000000" stroke-width="2" stroke-linecap="round" stroke-linejoin="round"></path>
            <path d="M39,20 C37.3629211,19.9998358 35.7327081,20.2115954 34.15,20.63 C33.4187227,20.8198866 32.7005454,21.0570521 32,21.34 C30.8631723,21.7857555 29.774306,22.3452652 28.75,23.01 C27.0028857,24.128383 25.4520932,25.527137 24.16,27.15 C23.7364566,27.662618 23.3488655,28.2039089 23,28.77 C22.2111028,29.9862101 21.5699173,31.29208 21.09,32.66 C20.3644672,34.6948448 19.9957176,36.8396823 20,39 C20,49.4934102 28.5065898,58 39,58 C49.4934102,58 58,49.4934102 58,39 C58,28.5065898 49.4934102,20 39,20 Z" id="Shape" fill="#F5EFCA" fill-rule="nonzero"></path>
            <path d="M39,20 C37.6145369,20.0009209 36.2373354,20.2133688 34.916,20.63 C34.2956073,20.8215596 33.6902797,21.0588775 33.105,21.34 C32.1339777,21.7942249 31.216082,22.3542855 30.368,23.01 C28.859262,24.1673383 27.5522973,25.5662095 26.5,27.15 C26.139771,27.6683868 25.8134241,28.2095148 25.523,28.77 C24.8504539,30.0059197 24.3114155,31.3099368 23.915,32.66 C23.3016846,34.7172349 22.9934041,36.8532984 23,39 C23,49.49 30.166,58 39,58 C47.834,58 55,49.49 55,39 C55,28.51 47.834,20 39,20 Z" id="Shape" fill="#F9EAB0" fill-rule="nonzero"></path>
            <path d="M24.16,27.15 C23.7364566,27.662618 23.3488655,28.2039089 23,28.77 L23,27.38 C23.4,27.31 23.78,27.23 24.16,27.15 Z" id="Shape" fill="#E4C05C" fill-rule="nonzero"></path>
            <path d="M32,16.95 L32,21.34 C30.8631723,21.7857555 29.774306,22.3452652 28.75,23.01 C28.2,23.15 27.61,23.27 27,23.38 L27,18.38 C28.7163893,18.0984307 30.3942877,17.6185518 32,16.95 Z" id="Shape" fill="#E4C05C" fill-rule="nonzero"></path>
            <path d="M22,18.93 L22,23.93 C21.19,23.98 20.35,24 19.5,24 C18.3,24 17.12,23.96 16,23.87 L16,18.87 C17.12,18.96 18.3,19 19.5,19 C20.35,19 21.19,18.98 22,18.93 Z" id="Shape" fill="#E4C05C" fill-rule="nonzero"></path>
            <path d="M28.75,23.01 C27.0028857,24.128383 25.4520932,25.527137 24.16,27.15 C23.78,27.23 23.4,27.31 23,27.38 C21.3462804,27.6663402 19.6764198,27.8500249 18,27.93 C17.19,27.98 16.35,28 15.5,28 C14.3,28 13.12,27.96 12,27.87 C10.320265,27.7528333 8.65001725,27.5256796 7,27.19 C5.62845587,26.9118572 4.28837451,26.4964319 3,25.95 C2.68804101,25.8181137 2.38417468,25.6678501 2.09,25.5 C0.76,24.77 0,23.91 0,23 C0,21.69 1.56,20.5 4.11,19.6 C4.73845743,20.7231697 5.7722675,21.5638111 7,21.95 C8.28837451,22.4964319 9.62845587,22.9118572 11,23.19 C12.6500172,23.5256796 14.320265,23.7528333 16,23.87 C17.12,23.96 18.3,24 19.5,24 C20.35,24 21.19,23.98 22,23.93 C23.6764198,23.8500249 25.3462804,23.6663402 27,23.38 C27.61,23.27 28.2,23.15 28.75,23.01 Z" id="Shape" fill="#F3D55B" fill-rule="nonzero"></path>
            <path d="M50.42,47.95 C48.6169943,49.8147731 46.1530862,50.8958756 43.56,50.96 L43.41,50.96 C42.2106444,50.9216846 41.023943,50.7025494 39.89,50.31 C39.3809368,50.1487703 38.8635118,50.0152413 38.34,49.91 C36.6961217,49.6282728 35.0171596,49.6181382 33.37,49.88 C32.9855034,49.945614 32.6049238,50.0324129 32.23,50.14 C31.5474479,50.3407452 30.8478074,50.4779953 30.14,50.55 L30.03,50.55 C28.9254305,50.5969442 27.9919443,49.7395695 27.9450001,48.635 C27.8980559,47.5304305 28.7554305,46.5969442 29.86,46.55 C30.4080309,46.3857118 30.8840221,46.0401775 31.21,45.57 C32.4023553,44.1499457 33.1285855,42.397217 33.29,40.55 L31,40.55 C29.8954305,40.55 29,39.6545695 29,38.55 C29,37.4454305 29.8954305,36.55 31,36.55 L33.05,36.55 C33.01,36.35 32.96,36.14 32.92,35.93 C32.3009285,33.8867745 32.2387872,31.7152845 32.74,29.64 C33.7383261,26.6225047 36.385679,24.450118 39.54,24.06 C41.6984623,23.7910846 43.8745263,24.3999502 45.58,25.75 C47.0033946,26.8942245 47.8872142,28.5785528 48.02,30.4 C48.0297247,31.4533188 47.2207965,32.3336318 46.1704126,32.4128065 C45.1200286,32.4919812 44.1882799,31.742875 44.04,30.7 C43.9872865,29.9684923 43.6231272,29.2947975 43.04,28.85 C42.1861133,28.1863068 41.1025303,27.8911114 40.03,28.03 C38.4393685,28.2303228 37.0971889,29.3094816 36.56,30.82 C36.2898287,32.2400799 36.3827007,33.7053936 36.83,35.08 C36.93,35.56 37.04,36.05 37.12,36.55 L40,36.55 C41.1045695,36.55 42,37.4454305 42,38.55 C42,39.6545695 41.1045695,40.55 40,40.55 L37.31,40.55 C37.1886313,42.3391912 36.712739,44.086396 35.91,45.69 C36.9733536,45.6885952 38.0345522,45.7856764 39.08,45.98 C39.7380661,46.1134574 40.3889089,46.2803402 41.03,46.48 C41.8150546,46.7724352 42.6426335,46.9345731 43.48,46.96 C45.0319261,46.9211546 46.5056174,46.2705738 47.58,45.15 C48.3531987,44.3657557 49.6157556,44.3568014 50.3999999,45.1300001 C51.1842442,45.9031987 51.1931986,47.1657556 50.42,47.95 Z" id="Shape" fill="#F29C1F" fill-rule="nonzero"></path>
            <path d="M24,40 L23.965,40 C23.6999075,39.990875 23.4493006,39.8768032 23.2683227,39.682885 C23.0873449,39.4889667 22.9908245,39.2310907 23,38.966 C23.0803329,35.1669497 24.5303097,31.524784 27.083,28.71 C27.4788211,28.3328755 28.1041343,28.3435333 28.4868738,28.7339276 C28.8696134,29.1243219 28.8678879,29.7497236 28.483,30.138 C26.3156621,32.6037189 25.0829571,35.7521954 25,39.034 C24.9816647,39.5729632 24.5392749,40.0003118 24,40 Z" id="Shape" fill="#FFFFFF" fill-rule="nonzero"></path>
            <circle id="Oval" fill="#FFFFFF" fill-rule="nonzero" cx="30" cy="27" r="1"></circle>
            <path d="M39,59 C27.954305,59 19,50.045695 19,39 C19,27.954305 27.954305,19 39,19 C50.045695,19 59,27.954305 59,39 C58.9873253,50.0404407 50.0404407,58.9873253 39,59 Z M39,21 C29.0588745,21 21,29.0588745 21,39 C21,48.9411255 29.0588745,57 39,57 C48.9411255,57 57,48.9411255 57,39 C56.9884279,29.0636718 48.9363282,21.0115721 39,21 Z" id="Shape" fill="#F0C419" fill-rule="nonzero"></path>
        </g>
    </g>
</svg>