<?xml version="1.0" encoding="UTF-8"?>
<svg width="60px" height="60px" viewBox="0 0 60 60" version="1.1" xmlns="http://www.w3.org/2000/svg" xmlns:xlink="http://www.w3.org/1999/xlink">
    <!-- Generator: Sketch 47.1 (45422) - http://www.bohemiancoding.com/sketch -->
    <title>3D GUI - Cartoony - 052 - Environment</title>
    <desc>Created with Sketch.</desc>
    <defs></defs>
    <g id="Page-1" stroke="none" stroke-width="1" fill="none" fill-rule="evenodd">
        <g id="3D-GUI---Cartoony---052---Environment" fill-rule="nonzero">
            <g id="Colour" transform="translate(1.000000, 1.000000)">
                <rect id="Rectangle-path" fill="#315ED6" x="4" y="0" width="54" height="58" rx="3"></rect>
                <rect id="Rectangle-path" fill="#FFFFFF" x="0" y="0" width="54" height="58" rx="3"></rect>
                <rect id="Rectangle-path" fill="#3D81F1" x="3" y="0" width="52" height="58" rx="3"></rect>
                <polygon id="Shape" fill="#FEDD0A" points="43.48 35.81 46.68 46.68 35.81 43.48 34.42 44.06 29 54 23.58 44.06 22.19 43.48 11.32 46.68 14.52 35.81 13.94 34.42 4 29 13.94 23.58 14.52 22.19 11.32 11.32 22.19 14.52 23.58 13.94 29 4 34.42 13.94 35.81 14.52 46.68 11.32 43.48 22.19 44.06 23.58 54 29 44.06 34.42"></polygon>
                <path d="M45,29 C45.002853,30.8474655 44.6847926,32.6813881 44.06,34.42 C43.8934612,34.8940644 43.6998084,35.3581632 43.48,35.81 C41.896666,39.1833435 39.1833435,41.896666 35.81,43.48 C35.358168,43.6998189 34.8940685,43.8934719 34.42,44.06 C30.9153522,45.3133428 27.0846478,45.3133428 23.58,44.06 C23.1059315,43.8934719 22.641832,43.6998189 22.19,43.48 C18.8166565,41.896666 16.103334,39.1833435 14.52,35.81 C14.3001916,35.3581632 14.1065388,34.8940644 13.94,34.42 C12.6866712,30.9153498 12.6866712,27.0846502 13.94,23.58 C14.1065368,23.1059349 14.3001896,22.6418358 14.52,22.19 C16.1033424,18.8166624 18.8166624,16.1033424 22.19,14.52 C22.6418431,14.3002056 23.1059412,14.1065532 23.58,13.94 C27.0846478,12.6866572 30.9153522,12.6866572 34.42,13.94 C34.8940588,14.1065532 35.3581569,14.3002056 35.81,14.52 C39.1833376,16.1033424 41.8966576,18.8166624 43.48,22.19 C43.6998104,22.6418358 43.8934632,23.1059349 44.06,23.58 C44.6847908,25.3186123 45.0028511,27.1525346 45,29 L45,29 Z" id="Shape" fill="#C81030"></path>
                <path d="M42,29 C42.0037375,30.8402934 41.7162215,32.6695845 41.14812,34.42 C40.997837,34.8923815 40.8223726,35.3563788 40.62248,35.81 C39.266792,39.0964636 36.8091352,41.8083676 33.67156,43.48 C33.2639421,43.6989645 32.8432487,43.8926632 32.41186,44.06 C29.2572142,45.3133338 25.7427858,45.3133338 22.58814,44.06 C22.1567513,43.8926632 21.7360579,43.6989645 21.32844,43.48 C18.1908648,41.8083676 15.733208,39.0964636 14.37752,35.81 C14.1776274,35.3563788 14.002163,34.8923815 13.85188,34.42 C12.7160441,30.895928 12.7160441,27.104072 13.85188,23.58 C14.002161,23.1076178 14.1776255,22.6436204 14.37752,22.19 C15.7332173,18.9035423 18.1908716,16.1916411 21.32844,14.52 C21.7360696,14.301059 22.1567616,14.1073611 22.58814,13.94 C25.7427858,12.6866662 29.2572142,12.6866662 32.41186,13.94 C32.8432384,14.1073611 33.2639304,14.301059 33.67156,14.52 C36.8091284,16.1916411 39.2667827,18.9035423 40.62248,22.19 C40.8223745,22.6436204 40.997839,23.1076178 41.14812,23.58 C41.7162199,25.3304158 42.0037358,27.1597068 42,29 Z" id="Shape" fill="#ED1D30"></path>
            </g>
            <g id="Outline" fill="#000000">
                <path d="M56,0 L4,0 C1.79183657,0.00235344802 0.00235344802,1.79183657 0,4 L0,8 C6.76353751e-17,8.55228475 0.44771525,9 1,9 C1.55228475,9 2,8.55228475 2,8 L2,4 C2.00126197,2.89595365 2.89595365,2.00126197 4,2 L56,2 C57.1040464,2.00126197 57.998738,2.89595365 58,4 L58,56 C57.998738,57.1040464 57.1040464,57.998738 56,58 L4,58 C2.89595365,57.998738 2.00126197,57.1040464 2,56 L2,16 C2,15.4477153 1.55228475,15 1,15 C0.44771525,15 6.76353751e-17,15.4477153 0,16 L0,56 C0.00235344802,58.2081634 1.79183657,59.9976466 4,60 L56,60 C58.2081634,59.9976466 59.9976466,58.2081634 60,56 L60,4 C59.9976466,1.79183657 58.2081634,0.00235344802 56,0 Z" id="Shape"></path>
                <path d="M4.52148,29.12207 C4.20003961,29.2971799 3.99999664,29.6339571 3.99999664,30 C3.99999664,30.3660429 4.20003961,30.7028201 4.52148,30.87793 L14.13885,36.12193 C14.23999,36.38597 14.3456567,36.6396733 14.45585,36.88304 L11.36039,47.39744 C11.2567007,47.7485758 11.3533491,48.128302 11.61229,48.3871407 C11.8712308,48.6459794 12.2509951,48.7424779 12.60209,48.63865 L23.1168,45.54405 C23.3628,45.65513 23.6165833,45.76072 23.87815,45.86082 L29.12215,55.4785 C29.2972599,55.7999404 29.6340371,55.9999834 30.00008,55.9999834 C30.3661229,55.9999834 30.7029001,55.7999404 30.87801,55.4785 L36.122,45.8606 C36.3861,45.75964 36.6399233,45.65415 36.88347,45.54413 L47.398,48.63867 C47.7490374,48.7420322 48.1284977,48.6453734 48.3873064,48.3866669 C48.6461151,48.1279603 48.7429237,47.7485382 48.6397,47.39746 L45.54413,36.88293 C45.6553967,36.6368433 45.7610633,36.3831767 45.86113,36.12193 L55.4785,30.87793 C55.7999404,30.7028201 55.9999834,30.3660429 55.9999834,30 C55.9999834,29.6339571 55.7999404,29.2971799 55.4785,29.12207 L45.86113,23.87807 C45.75999,23.61403 45.6543233,23.3603267 45.54413,23.11696 L48.63959,12.60256 C48.7428137,12.2514818 48.6460051,11.8720597 48.3871964,11.6133531 C48.1283877,11.3546466 47.7489274,11.2579878 47.39789,11.36135 L36.88318,14.45595 C36.63718,14.34487 36.3833967,14.23928 36.12183,14.13918 L30.87783,4.5215 C30.6868124,4.22134069 30.3556855,4.0395736 29.9999,4.0395736 C29.6441145,4.0395736 29.3129876,4.22134069 29.12197,4.5215 L23.878,14.1394 C23.6139,14.24036 23.3600767,14.34585 23.11653,14.45587 L12.60205,11.36133 C12.2510126,11.2579678 11.8715523,11.3546266 11.6127436,11.6133331 C11.3539349,11.8720397 11.2571263,12.2514618 11.36035,12.60254 L14.45587,23.11707 C14.3445967,23.3631633 14.23893,23.61683 14.13887,23.87807 L4.52148,29.12207 Z M23.62842,16.418 C24.0482962,16.2144167 24.4795044,16.0350855 24.91992,15.88089 C28.2069961,14.7057412 31.7998049,14.7064303 35.08643,15.88284 C35.5295199,16.0385678 35.9633328,16.2195305 36.38574,16.42484 C39.5518869,17.9135038 42.0976287,20.4626983 43.582,23.63086 C43.786169,24.0497023 43.9656753,24.4801234 44.1196,24.91992 C45.2942663,28.2072771 45.2934041,31.8001271 44.11716,35.08692 C43.9617647,35.5297361 43.7806294,35.9630945 43.57468,36.38478 C42.0869203,39.55079 39.5388039,42.0968264 36.37158,43.582 C35.9517038,43.7855833 35.5204956,43.9649145 35.08008,44.11911 C31.7919853,45.2883831 28.2012044,45.2876767 24.91357,44.11711 C24.4704801,43.9613822 24.0366672,43.7804195 23.61426,43.57511 C20.4481215,42.0864587 17.9023807,39.5372829 16.418,36.36914 C16.213831,35.9502977 16.0343247,35.5198766 15.8804,35.08008 C14.7057337,31.7927229 14.7065959,28.1998729 15.88284,24.91308 C16.0382353,24.4702639 16.2193706,24.0369055 16.42532,23.61522 C17.9130797,20.44921 20.4611961,17.9031736 23.62842,16.418 Z M13.35663,26.58228 C12.8812076,28.8359106 12.8811224,31.1639346 13.35638,33.4176 L7.08887,30 L13.35663,26.58228 Z M15.81512,39.34828 C17.0821309,41.2720569 18.7273971,42.9178607 20.65076,44.1855 L13.79736,46.2021 L15.81512,39.34828 Z M30,52.91113 L26.58258,46.64349 C28.8360454,47.1187928 31.1638765,47.1188371 33.41736,46.64362 L30,52.91113 Z M39.34808,44.18524 C41.2717958,42.918228 42.9175718,41.2730134 44.18524,39.34973 L46.20264,46.20215 L39.34808,44.18524 Z M46.64337,33.41772 C47.1187924,31.1640894 47.1188776,28.8360654 46.64362,26.5824 L52.91113,30 L46.64337,33.41772 Z M44.18488,20.65167 C42.9178544,18.7278886 41.2725916,17.0820679 39.34924,15.81439 L46.20264,13.79785 L44.18488,20.65167 Z M30,7.08887 L33.41949,13.36029 C31.1626994,12.9045831 28.8375979,12.9044369 26.58075,13.35986 L30,7.08887 Z M20.65192,15.81476 C18.7282042,17.081772 17.0824282,18.7269866 15.81476,20.65027 L13.79736,13.79785 L20.65192,15.81476 Z" id="Shape"></path>
                <circle id="Oval" cx="1" cy="12" r="1"></circle>
            </g>
        </g>
    </g>
</svg>