<?xml version="1.0" encoding="UTF-8"?>
<svg xmlns="http://www.w3.org/2000/svg" xmlns:xlink="http://www.w3.org/1999/xlink" width="60px" height="60px" viewBox="0 0 60 60" version="1.1">
    <!-- Generator: Sketch 51.1 (57501) - http://www.bohemiancoding.com/sketch -->
    <title>28 - Sunny</title>
    <desc>Created with Sketch.</desc>
    <defs/>
    <g id="Page-1" stroke="none" stroke-width="1" fill="none" fill-rule="evenodd">
        <g id="28---Sunny" fill-rule="nonzero">
            <circle id="Oval" fill="#0091FE" cx="30" cy="30" r="30"/>
            <path d="M27.731,11.457 C25.008,12.585 21.712,8.073 20.166,5.62 C20.1012403,5.51785144 19.972241,5.47731509 19.8606931,5.52406132 C19.7491452,5.57080755 19.6875864,5.69120085 19.715,5.809 C20.356,8.637 21.215,14.156 18.492,15.284 L27.731,11.457 Z" id="Shape" fill="#FFA600"/>
            <path d="M32.269,48.543 C34.992,47.415 38.288,51.927 39.834,54.38 C39.8987597,54.4821486 40.027759,54.5226849 40.1393069,54.4759387 C40.2508548,54.4291924 40.3124136,54.3087992 40.285,54.191 C39.644,51.363 38.785,45.844 41.508,44.716 L32.269,48.543 Z" id="Shape" fill="#FFA600"/>
            <path d="M33,12 C31.123,12 30.347,8.331 30.1,6.731 C30.1,6.67577153 30.0552285,6.631 30,6.631 C29.9447715,6.631 29.9,6.67577153 29.9,6.731 C29.653,8.331 28.877,12 27,12 L33,12 Z" id="Shape" fill="#FDE35D"/>
            <path d="M33,48 C31.123,48 30.347,51.669 30.1,53.269 C30.1,53.3242285 30.0552285,53.369 30,53.369 C29.9447715,53.369 29.9,53.3242285 29.9,53.269 C29.653,51.669 28.877,48 27,48 L33,48 Z" id="Shape" fill="#FDE35D"/>
            <path d="M19.393,15.151 C18.066,16.478 14.923,14.432 13.616,13.477 C13.5762848,13.4498245 13.5228461,13.4547902 13.4888181,13.4888181 C13.4547902,13.5228461 13.4498245,13.5762848 13.477,13.616 C14.432,14.923 16.477,18.066 15.151,19.393 L19.393,15.151 Z" id="Shape" fill="#FDE35D"/>
            <path d="M44.849,40.607 C43.522,41.934 45.568,45.077 46.523,46.384 C46.5501755,46.4237152 46.5452098,46.4771539 46.5111819,46.5111819 C46.4771539,46.5452098 46.4237152,46.5501755 46.384,46.523 C45.077,45.568 41.934,43.523 40.607,44.849 L44.849,40.607 Z" id="Shape" fill="#FDE35D"/>
            <path d="M48,33 C48,31.123 51.669,30.347 53.269,30.1 C53.3242285,30.1 53.369,30.0552285 53.369,30 C53.369,29.9447715 53.3242285,29.9 53.269,29.9 C51.669,29.653 48,28.877 48,27 L48,33 Z" id="Shape" fill="#FDE35D"/>
            <path d="M12,33 C12,31.123 8.331,30.347 6.731,30.1 C6.67577153,30.1 6.631,30.0552285 6.631,30 C6.631,29.9447715 6.67577153,29.9 6.731,29.9 C8.331,29.653 12,28.877 12,27 L12,33 Z" id="Shape" fill="#FDE35D"/>
            <path d="M44.849,19.393 C43.522,18.066 45.568,14.923 46.523,13.616 C46.5501755,13.5762848 46.5452098,13.5228461 46.5111819,13.4888181 C46.4771539,13.4547902 46.4237152,13.4498245 46.384,13.477 C45.077,14.432 41.934,16.477 40.607,15.151 L44.849,19.393 Z" id="Shape" fill="#FDE35D"/>
            <path d="M19.393,44.849 C18.066,43.522 14.923,45.568 13.616,46.523 C13.5762848,46.5501755 13.5228461,46.5452098 13.4888181,46.5111819 C13.4547902,46.4771539 13.4498245,46.4237152 13.477,46.384 C14.432,45.077 16.477,41.934 15.151,40.607 L19.393,44.849 Z" id="Shape" fill="#FDE35D"/>
            <path d="M48.543,27.731 C47.415,25.008 51.927,21.712 54.38,20.166 C54.4821486,20.1012403 54.5226849,19.972241 54.4759387,19.8606931 C54.4291924,19.7491452 54.3087992,19.6875864 54.191,19.715 C51.363,20.356 45.844,21.215 44.716,18.492 L48.543,27.731 Z" id="Shape" fill="#FFA600"/>
            <path d="M11.457,32.269 C12.585,34.992 8.073,38.288 5.62,39.834 C5.51785144,39.8987597 5.47731509,40.027759 5.52406132,40.1393069 C5.57080755,40.2508548 5.69120085,40.3124136 5.809,40.285 C8.637,39.644 14.156,38.785 15.284,41.508 L11.457,32.269 Z" id="Shape" fill="#FFA600"/>
            <path d="M15.284,18.492 C14.156,21.215 8.637,20.356 5.809,19.715 C5.69120085,19.6875864 5.57080755,19.7491452 5.52406132,19.8606931 C5.47731509,19.972241 5.51785144,20.1012403 5.62,20.166 C8.073,21.712 12.585,25.008 11.457,27.731 L15.284,18.492 Z" id="Shape" fill="#FFA600"/>
            <path d="M44.716,41.508 C45.844,38.785 51.363,39.644 54.191,40.285 C54.3087992,40.3124136 54.4291924,40.2508548 54.4759387,40.1393069 C54.5226849,40.027759 54.4821486,39.8987597 54.38,39.834 C51.927,38.288 47.415,34.992 48.543,32.269 L44.716,41.508 Z" id="Shape" fill="#FFA600"/>
            <path d="M41.508,15.284 C38.785,14.156 39.644,8.637 40.285,5.809 C40.3124136,5.69120085 40.2508548,5.57080755 40.1393069,5.52406132 C40.027759,5.47731509 39.8987597,5.51785144 39.834,5.62 C38.288,8.073 34.992,12.585 32.269,11.457 L41.508,15.284 Z" id="Shape" fill="#FFA600"/>
            <path d="M18.492,44.716 C21.215,45.844 20.356,51.363 19.715,54.191 C19.6875864,54.3087992 19.7491452,54.4291924 19.8606931,54.4759387 C19.972241,54.5226849 20.1012403,54.4821486 20.166,54.38 C21.712,51.927 25.008,47.415 27.731,48.543 L18.492,44.716 Z" id="Shape" fill="#FFA600"/>
            <path d="M37.98,47.24 C31.00452,50.4736741 22.7637696,49.1424394 17.1612799,43.8768836 C11.5587902,38.6113277 9.71963908,30.4688664 12.5150073,23.3064726 C15.3103755,16.1440787 22.1789043,11.4000862 29.8670652,11.3216595 C37.5552261,11.2432329 44.5191021,15.8461216 47.46,22.95 C51.3159062,32.2788979 47.1357844,42.9893577 37.98,47.24 Z" id="Shape" fill="#FFD201"/>
            <ellipse id="Oval" fill="#FDE35D" transform="translate(24.749527, 19.630115) rotate(-39.333000) translate(-24.749527, -19.630115) " cx="24.7495267" cy="19.6301147" rx="5.742" ry="4.511"/>
        </g>
    </g>
</svg>
