<?xml version="1.0" encoding="UTF-8"?>
<svg xmlns="http://www.w3.org/2000/svg" xmlns:xlink="http://www.w3.org/1999/xlink" width="41px" height="58px" viewBox="0 0 41 58" version="1.1">
    <!-- Generator: Sketch 51.1 (57501) - http://www.bohemiancoding.com/sketch -->
    <title>002 - Temperature</title>
    <desc>Created with Sketch.</desc>
    <defs/>
    <g id="Page-1" stroke="none" stroke-width="1" fill="none" fill-rule="evenodd">
        <g id="002---Temperature" transform="translate(-1.000000, 0.000000)" fill-rule="nonzero">
            <path d="M25,46 C24.9962655,51.8225537 20.8132572,56.8022616 15.0787282,57.8108862 C9.34419927,58.8195108 3.71307661,55.5659733 1.72281446,50.094136 C-0.267447679,44.6222988 1.95752019,38.5112787 7,35.6 L7,6 C7,2.6862915 9.6862915,-2.22044605e-16 13,0 C16.3137085,1.77635684e-15 19,2.6862915 19,6 L19,35.6 C22.7151949,37.7449676 25.0027505,41.710064 25,46 Z" id="Shape" fill="#9FC9D3"/>
            <path d="M13,54 C9.3730343,54.0069369 6.19520152,51.5729536 5.25698785,48.0694292 C4.31877417,44.5659048 5.85495498,40.8695492 9,39.063 L11,37.908 L11,6 C11,4.8954305 11.8954305,4 13,4 C14.1045695,4 15,4.8954305 15,6 L15,37.908 L17,39.063 C20.145045,40.8695492 21.6812258,44.5659048 20.7430122,48.0694292 C19.8047985,51.5729536 16.6269657,54.0069369 13,54 Z" id="Shape" fill="#FF5364"/>
            <path d="M13,51 C12.1267532,51.004112 11.2678679,50.7778354 10.51,50.344 C8.96012623,49.4456272 8.00430781,47.7914139 8,46 C8,45.4477153 8.44771525,45 9,45 C9.55228475,45 10,45.4477153 10,46 C10.0037277,47.0778349 10.5793807,48.0726638 11.512,48.613 C11.9653971,48.8704613 12.4786175,49.00394 13,49 C13.5522847,49 14,49.4477153 14,50 C14,50.5522847 13.5522847,51 13,51 Z" id="Shape" fill="#FFFFFF"/>
            <path d="M41,3 L31,3 C30.4477153,3 30,2.55228475 30,2 C30,1.44771525 30.4477153,1 31,1 L41,1 C41.5522847,1 42,1.44771525 42,2 C42,2.55228475 41.5522847,3 41,3 Z" id="Shape" fill="#84B5CB"/>
            <path d="M41,11 L31,11 C30.4477153,11 30,10.5522847 30,10 C30,9.44771525 30.4477153,9 31,9 L41,9 C41.5522847,9 42,9.44771525 42,10 C42,10.5522847 41.5522847,11 41,11 Z" id="Shape" fill="#84B5CB"/>
            <path d="M41,19 L31,19 C30.4477153,19 30,18.5522847 30,18 C30,17.4477153 30.4477153,17 31,17 L41,17 C41.5522847,17 42,17.4477153 42,18 C42,18.5522847 41.5522847,19 41,19 Z" id="Shape" fill="#84B5CB"/>
            <path d="M41,27 L31,27 C30.4477153,27 30,26.5522847 30,26 C30,25.4477153 30.4477153,25 31,25 L41,25 C41.5522847,25 42,25.4477153 42,26 C42,26.5522847 41.5522847,27 41,27 Z" id="Shape" fill="#84B5CB"/>
            <path d="M41,35 L31,35 C30.4477153,35 30,34.5522847 30,34 C30,33.4477153 30.4477153,33 31,33 L41,33 C41.5522847,33 42,33.4477153 42,34 C42,34.5522847 41.5522847,35 41,35 Z" id="Shape" fill="#84B5CB"/>
            <path d="M41,44 L31,44 C30.4477153,44 30,43.5522847 30,43 C30,42.4477153 30.4477153,42 31,42 L41,42 C41.5522847,42 42,42.4477153 42,43 C42,43.5522847 41.5522847,44 41,44 Z" id="Shape" fill="#84B5CB"/>
            <path d="M41,53 L31,53 C30.4477153,53 30,52.5522847 30,52 C30,51.4477153 30.4477153,51 31,51 L41,51 C41.5522847,51 42,51.4477153 42,52 C42,52.5522847 41.5522847,53 41,53 Z" id="Shape" fill="#84B5CB"/>
            <path d="M34,7 L31,7 C30.4477153,7 30,6.55228475 30,6 C30,5.44771525 30.4477153,5 31,5 L34,5 C34.5522847,5 35,5.44771525 35,6 C35,6.55228475 34.5522847,7 34,7 Z" id="Shape" fill="#3B97D3"/>
            <path d="M34,15 L31,15 C30.4477153,15 30,14.5522847 30,14 C30,13.4477153 30.4477153,13 31,13 L34,13 C34.5522847,13 35,13.4477153 35,14 C35,14.5522847 34.5522847,15 34,15 Z" id="Shape" fill="#3B97D3"/>
            <path d="M34,23 L31,23 C30.4477153,23 30,22.5522847 30,22 C30,21.4477153 30.4477153,21 31,21 L34,21 C34.5522847,21 35,21.4477153 35,22 C35,22.5522847 34.5522847,23 34,23 Z" id="Shape" fill="#3B97D3"/>
            <path d="M34,31 L31,31 C30.4477153,31 30,30.5522847 30,30 C30,29.4477153 30.4477153,29 31,29 L34,29 C34.5522847,29 35,29.4477153 35,30 C35,30.5522847 34.5522847,31 34,31 Z" id="Shape" fill="#3B97D3"/>
            <path d="M34,39 L31,39 C30.4477153,39 30,38.5522847 30,38 C30,37.4477153 30.4477153,37 31,37 L34,37 C34.5522847,37 35,37.4477153 35,38 C35,38.5522847 34.5522847,39 34,39 Z" id="Shape" fill="#3B97D3"/>
            <path d="M34,48 L31,48 C30.4477153,48 30,47.5522847 30,47 C30,46.4477153 30.4477153,46 31,46 L34,46 C34.5522847,46 35,46.4477153 35,47 C35,47.5522847 34.5522847,48 34,48 Z" id="Shape" fill="#3B97D3"/>
            <path d="M34,57 L31,57 C30.4477153,57 30,56.5522847 30,56 C30,55.4477153 30.4477153,55 31,55 L34,55 C34.5522847,55 35,55.4477153 35,56 C35,56.5522847 34.5522847,57 34,57 Z" id="Shape" fill="#3B97D3"/>
        </g>
    </g>
</svg>
